<svg aria-hidden="true" style="position: absolute; width: 0; height: 0; overflow: hidden;" version="1.1" xmlns="http://www.w3.org/2000/svg" xmlns:xlink="http://www.w3.org/1999/xlink">
<defs>
<symbol id="icon-chevron-right" viewBox="0 0 32 32">
<title>chevron-right</title>
<path d="M22.552 15.951l-11.219 11.219-1.886-1.886 9.333-9.333-9.333-9.333 1.886-1.886 11.219 11.219z"></path>
</symbol>
<symbol id="icon-chevron-left" viewBox="0 0 32 32">
<title>chevron-left</title>
<path d="M9.448 15.722l11.219-11.219 1.886 1.886-9.333 9.333 9.333 9.333-1.886 1.886-11.219-11.219z"></path>
</symbol>
<symbol id="icon-arrow-up" viewBox="0 0 32 32">
<title>arrow-up</title>
<path d="M16 7.025l-8.975 8.975 1.508 1.508 6.4-6.4v13.425h2.133v-13.425l6.4 6.4 1.508-1.508-8.975-8.975z"></path>
</symbol>
<symbol id="icon-arrow-right" viewBox="0 0 32 32">
<title>arrow-right</title>
<path d="M24.754 15.779l-8.975-8.975-1.508 1.508 6.4 6.4h-13.425v2.133h13.425l-6.4 6.4 1.508 1.508 8.975-8.975z"></path>
</symbol>
<symbol id="icon-arrow-left" viewBox="0 0 32 32">
<title>arrow-left</title>
<path d="M7.246 15.779l8.975 8.975 1.508-1.508-6.4-6.4h13.425v-2.133h-13.425l6.4-6.4-1.508-1.508-8.975 8.975z"></path>
</symbol>
<symbol id="icon-caret-up-down" viewBox="0 0 32 32">
<title>caret-up-down</title>
<path d="M16 3.333l9.333 10h-18.667l9.333-10z"></path>
<path d="M16 28.667l-9.333-10h18.667l-9.333 10z"></path>
</symbol>
<symbol id="icon-caret-down" viewBox="0 0 32 32">
<title>caret-down</title>
<path d="M7.333 12.667l9.333 10 9.333-10h-18.667z"></path>
</symbol>
<symbol id="icon-caret-up" viewBox="0 0 32 32">
<title>caret-up</title>
<path d="M25.333 18.667l-9.333-10-9.333 10h18.667z"></path>
</symbol>
<symbol id="icon-caret-right" viewBox="0 0 32 32">
<title>caret-right</title>
<path d="M11 24.667l10-9.333-10-9.333v18.667z"></path>
</symbol>
<symbol id="icon-checked" viewBox="0 0 32 32">
<title>checked</title>
<path d="M29.333 2.667v26.667h-26.667v-26.667h26.667zM25.219 10.631l-1.921-1.849-10.293 10.694-4.428-4.025-1.794 1.973 6.345 5.769 12.090-12.561z"></path>
</symbol>
<symbol id="icon-unchecked" viewBox="0 0 32 32">
<title>unchecked</title>
<path d="M26.667 5.333v21.333h-21.333v-21.333h21.333zM2.667 2.667v26.667h26.667v-26.667h-26.667z"></path>
</symbol>
<symbol id="icon-close-small" viewBox="0 0 32 32">
<title>close-small</title>
<path d="M16 14.115l6.6-6.6 1.885 1.885-6.6 6.6 6.6 6.6-1.885 1.885-6.6-6.6-6.6 6.6-1.885-1.885 6.6-6.6-6.6-6.6 1.885-1.885 6.6 6.6z"></path>
</symbol>
<symbol id="icon-close-large" viewBox="0 0 32 32">
<title>close-large</title>
<path d="M14.429 16l-8.659 8.659 1.571 1.571 8.659-8.659 8.659 8.659 1.571-1.571-8.659-8.659 8.659-8.659-1.571-1.571-8.659 8.659-8.659-8.103-1.571 1.571 8.659 8.103z"></path>
</symbol>
<symbol id="icon-print" viewBox="0 0 32 32">
<title>print</title>
<path d="M6.667 4h18.667v4.667h4v15.333h-4v5.333h-18.667v-5.333h-4.125l0.125-15.333h4v-4.667zM9.333 8.667h13.333v-2h-13.333v2zM9.333 26.667h13.333v-5.333h-13.333v5.333zM24 16.667c0.736 0 1.333-0.597 1.333-1.333s-0.597-1.333-1.333-1.333c-0.736 0-1.333 0.597-1.333 1.333s0.597 1.333 1.333 1.333z"></path>
</symbol>
<symbol id="icon-email" viewBox="0 0 32 32">
<title>email</title>
<path d="M2.667 8.287v17.713h26.667v-18.031l-14.034 11.802-12.632-11.484z"></path>
<path d="M27.532 6h-23.416l11.252 10.229 12.164-10.229z"></path>
</symbol>
<symbol id="icon-linkedin" viewBox="0 0 32 32">
<title>linked-in</title>
<path d="M8.888 28.999h-5.715v-17.309h5.715v17.309z"></path>
<path d="M6.069 3.343c-0.407-0.034-0.817 0.017-1.204 0.15s-0.742 0.344-1.045 0.62c-0.302 0.277-0.545 0.613-0.712 0.988s-0.257 0.781-0.262 1.192c-0.005 0.411 0.074 0.819 0.232 1.198s0.392 0.722 0.687 1.006c0.295 0.284 0.645 0.505 1.029 0.647s0.792 0.204 1.2 0.18h0.038c0.409 0.034 0.821-0.017 1.21-0.15s0.746-0.346 1.049-0.625c0.303-0.279 0.546-0.618 0.712-0.996s0.254-0.786 0.257-1.2c0.003-0.413-0.080-0.823-0.242-1.203s-0.4-0.722-0.7-1.005c-0.3-0.283-0.654-0.5-1.041-0.638s-0.798-0.195-1.208-0.165z"></path>
<path d="M12.053 28.999h5.715v-9.666c-0.022-0.475 0.042-0.951 0.188-1.403 0.214-0.612 0.61-1.143 1.135-1.52s1.153-0.581 1.798-0.584c2.074 0 2.896 1.587 2.896 3.914v9.259h5.715v-9.925c0-5.316-2.815-7.791-6.58-7.791-1.036-0.044-2.063 0.199-2.972 0.703s-1.662 1.247-2.179 2.151v-2.447h-5.716c0.076 1.624 0 17.311 0 17.311v-0.001z"></path>
</symbol>
<symbol id="icon-play" viewBox="0 0 32 32">
<title>play</title>
<path d="M6.667 2.667v26.667l20-13.333-20-13.333z"></path>
</symbol>
<symbol id="icon-youtube" viewBox="0 0 32 32">
<title>youtube</title>
<path d="M29.494 12.872c0.061-1.804-0.323-3.595-1.116-5.206-0.538-0.661-1.284-1.107-2.109-1.261-3.413-0.318-6.84-0.449-10.266-0.391-3.414-0.061-6.828 0.066-10.229 0.378-0.672 0.126-1.295 0.45-1.791 0.933-1.104 1.046-1.226 2.836-1.349 4.349-0.178 2.72-0.178 5.449 0 8.169 0.035 0.852 0.159 1.697 0.368 2.521 0.148 0.637 0.447 1.226 0.871 1.714 0.5 0.509 1.136 0.851 1.828 0.983 2.644 0.336 5.309 0.475 7.972 0.416 4.293 0.063 8.058 0 12.51-0.353 0.708-0.124 1.363-0.467 1.876-0.983 0.343-0.353 0.6-0.785 0.748-1.261 0.439-1.383 0.654-2.831 0.638-4.286 0.049-0.706 0.049-4.967 0.049-5.723zM13.23 19.352v-7.803l7.261 3.92c-2.036 1.16-4.722 2.471-7.261 3.883z"></path>
</symbol>
<symbol id="icon-twitter" viewBox="0 0 32 32">
<title>twitter</title>
<path d="M26.318 8.148c1.098-0.134 2.171-0.441 3.182-0.908-0.745 1.166-1.682 2.185-2.768 3.008 0.012 0.249 0.018 0.498 0.018 0.749 0.014 2.172-0.385 4.324-1.172 6.333s-1.948 3.834-3.414 5.37-3.209 2.75-5.127 3.574c-1.918 0.824-3.974 1.24-6.047 1.226-3.010 0.003-5.958-0.903-8.49-2.608 0.439 0.055 0.88 0.082 1.322 0.082 2.496 0.006 4.922-0.87 6.885-2.485-1.156-0.023-2.275-0.424-3.203-1.146s-1.616-1.73-1.97-2.883c0.344 0.068 0.693 0.102 1.044 0.102 0.492 0.001 0.983-0.067 1.458-0.202-1.254-0.264-2.383-0.976-3.194-2.012s-1.254-2.336-1.254-3.676v-0.074c0.769 0.448 1.629 0.697 2.508 0.725-1.173-0.821-2.002-2.079-2.321-3.518s-0.101-2.951 0.607-4.229c1.391 1.793 3.126 3.259 5.092 4.303s4.121 1.644 6.323 1.759c-0.095-0.434-0.142-0.877-0.142-1.322-0.004-1.166 0.328-2.306 0.953-3.271s1.512-1.711 2.547-2.14c1.035-0.429 2.169-0.521 3.255-0.264s2.072 0.85 2.831 1.704c1.241-0.257 2.431-0.736 3.518-1.414-0.413 1.347-1.281 2.49-2.441 3.216z"></path>
</symbol>
<symbol id="icon-search" viewBox="0 0 32 32">
<title>search</title>
<path d="M13.667 2.667c-6.075 0-11 4.925-11 11s4.925 11 11 11c2.241 0 4.326-0.67 6.065-1.821l8.439 7.033 1.707-2.049-8.091-6.742c1.789-1.956 2.88-4.561 2.88-7.42 0-6.075-4.925-11-11-11zM5.333 13.667c0-4.602 3.731-8.333 8.333-8.333s8.333 3.731 8.333 8.333c0 4.602-3.731 8.333-8.333 8.333s-8.333-3.731-8.333-8.333z"></path>
</symbol>
<symbol id="icon-download" viewBox="0 0 32 32">
<title>download</title>
<path d="M5.333 22.667v4h21.333v-4h2.667v6.667h-26.667v-6.667h2.667z"></path>
<path d="M16 25.219l-1.219-1.219h-0.114v-0.114l-9.886-9.886 1.886-1.886 8 8 0-17.448h2.667l-0 17.448 8-8 1.886 1.886-9.886 9.886v0.114h-0.114l-1.219 1.219z"></path>
</symbol>
<symbol id="icon-copy" viewBox="0 0 32 32">
<title>copy</title>
<path d="M2.667 2.667v21.333h5.333v5.333h21.333v-21.333h-5.333v-5.333h-21.333zM21.333 8h-13.333v13.333h-2.667v-16h16v2.667zM10.667 26.667v-16h16v16h-16z"></path>
</symbol>
<symbol id="icon-columns" viewBox="0 0 32 32">
<title>columns</title>
<path d="M2.667 3.333c0-0.368 0.298-0.667 0.667-0.667h6.667v26.667h-6.667c-0.368 0-0.667-0.298-0.667-0.667v-25.333z"></path>
<path d="M12.333 2.667h6.667v26.667h-6.667v-26.667z"></path>
<path d="M21.583 2.667h6.667c0.368 0 0.667 0.298 0.667 0.667v25.333c0 0.368-0.298 0.667-0.667 0.667h-6.667v-26.667z"></path>
</symbol>
<symbol id="icon-link" viewBox="0 0 32 32">
<title>link</title>
<path d="M22.042 5.333c0.612-0 1.217 0.117 1.781 0.345s1.074 0.56 1.502 0.976c0.428 0.417 0.765 0.909 0.995 1.449s0.347 1.117 0.347 1.699-0.118 1.159-0.348 1.699c-0.23 0.54-0.567 1.032-0.996 1.449l-3.83 3.73c-0.428 0.417-0.938 0.749-1.501 0.976s-1.169 0.345-1.781 0.345-1.217-0.117-1.781-0.345c-0.564-0.227-1.073-0.56-1.501-0.976l-0.955-0.93-1.861 1.91 0.955 0.93c0.678 0.661 1.482 1.183 2.364 1.539s1.826 0.538 2.778 0.538c0.952 0 1.896-0.183 2.778-0.538s1.685-0.878 2.364-1.539l3.829-3.729c0.679-0.661 1.22-1.447 1.589-2.315s0.56-1.8 0.561-2.742c0-0.942-0.19-1.874-0.56-2.743s-0.91-1.655-1.588-2.316c-0.679-0.661-1.483-1.183-2.365-1.539s-1.826-0.538-2.779-0.538-1.897 0.183-2.779 0.539c-0.882 0.356-1.685 0.879-2.364 1.54l-3.636 3.541 1.861 1.91 3.636-3.541c0.428-0.417 0.938-0.75 1.501-0.978s1.169-0.345 1.781-0.345z"></path>
<path d="M12.007 14.345c0.564-0.227 1.169-0.345 1.781-0.345s1.217 0.117 1.781 0.345c0.563 0.227 1.073 0.56 1.501 0.976l0.955 0.93 1.86-1.91-0.955-0.93c-0.678-0.661-1.482-1.183-2.364-1.539s-1.826-0.538-2.778-0.538-1.896 0.183-2.778 0.538c-0.882 0.356-1.685 0.878-2.364 1.539l-3.829 3.729c-0.679 0.661-1.22 1.448-1.589 2.316s-0.561 1.8-0.561 2.742c-0 0.942 0.19 1.874 0.559 2.743s0.91 1.655 1.588 2.316c0.679 0.661 1.483 1.183 2.365 1.539s1.826 0.538 2.779 0.538c0.953-0 1.897-0.183 2.779-0.539s1.686-0.879 2.364-1.54l3.635-3.54-1.861-1.91-3.636 3.541c-0.428 0.417-0.938 0.75-1.502 0.977s-1.169 0.345-1.781 0.345-1.218-0.117-1.781-0.345c-0.564-0.227-1.074-0.56-1.502-0.976s-0.765-0.909-0.995-1.449c-0.229-0.54-0.347-1.117-0.347-1.699s0.118-1.159 0.348-1.699c0.23-0.54 0.567-1.032 0.995-1.449l3.83-3.73c0.428-0.417 0.938-0.749 1.501-0.976z"></path>
</symbol>
<symbol id="icon-instagram" viewBox="0 0 32 32">
<title>instagram</title>
<path d="M16 11.62c-2.419 0-4.38 1.961-4.38 4.38s1.961 4.38 4.38 4.38c2.419 0 4.38-1.961 4.38-4.38s-1.961-4.38-4.38-4.38z"></path>
<path d="M10.096 2.667c-4.103 0-7.429 3.326-7.429 7.429v11.809c0 4.103 3.326 7.429 7.429 7.429h11.809c4.103 0 7.429-3.326 7.429-7.429v-11.809c0-4.103-3.326-7.429-7.429-7.429h-11.809zM22.978 10.632c0.889 0 1.61-0.721 1.61-1.61s-0.721-1.61-1.61-1.61c-0.889 0-1.61 0.721-1.61 1.61s0.721 1.61 1.61 1.61zM9.645 16c0-3.51 2.845-6.355 6.355-6.355s6.355 2.845 6.355 6.355c0 3.51-2.845 6.355-6.355 6.355s-6.355-2.845-6.355-6.355z"></path>
</symbol>
<symbol id="icon-info" viewBox="0 0 32 32">
<title>info</title>
<path d="M16 29.333c-7.364 0-13.333-5.969-13.333-13.333s5.969-13.333 13.333-13.333c7.364 0 13.333 5.969 13.333 13.333s-5.969 13.333-13.333 13.333zM16 26.667c2.829 0 5.542-1.124 7.542-3.124s3.124-4.713 3.124-7.542-1.124-5.542-3.124-7.542c-2-2-4.713-3.124-7.542-3.124s-5.542 1.124-7.542 3.124c-2 2-3.124 4.713-3.124 7.542s1.124 5.542 3.124 7.542c2 2 4.713 3.124 7.542 3.124zM14.667 9.333h2.667v2.667h-2.667v-2.667zM14.667 14.667h2.667v8h-2.667v-8z"></path>
</symbol>
<symbol id="icon-hamburger" viewBox="0 0 32 32">
<title>hamburger</title>
<path stroke-linejoin="miter" stroke-linecap="butt" stroke-miterlimit="4" stroke-width="3.2" d="M0 6.4h32"></path>
<path stroke-linejoin="miter" stroke-linecap="butt" stroke-miterlimit="4" stroke-width="3.2" d="M0 16h32"></path>
<path stroke-linejoin="miter" stroke-linecap="butt" stroke-miterlimit="4" stroke-width="3.2" d="M0 25.6h32"></path>
</symbol>
<symbol id="icon-facebook" viewBox="0 0 32 32">
<title>facebook</title>
<path d="M22.083 17.688l0.726-4.886h-4.539v-3.171c0-1.337 0.634-2.64 2.667-2.64h2.064v-4.16c0 0-1.873-0.33-3.663-0.33-3.738 0-6.182 2.34-6.182 6.577v3.724h-4.155v4.886h4.155v11.812h5.114v-11.812h3.813z"></path>
</symbol>
<symbol id="icon-blockquote" viewBox="0 0 32 32">
<title>blockquote</title>
<path d='M9.51991 14.1026C7.60564 14.1026 5.8333 14.7169 4.38524 15.7611C4.35398 15.4265 4.33835 15.0628 4.33835 14.658C4.33835 9.73095 8.55945 4.43436 13.4841 2.27877L12.3702 0C3.86934 4.188 0 11.2707 0 19.4619C0 21.1759 0.250174 23.9942 1.3483 26.4975C2.68332 29.729 5.83928 32 9.51991 32C14.4086 32 18.3717 27.9935 18.3717 23.0513C18.3717 18.1091 14.4086 14.1026 9.51991 14.1026Z' fill='%23EB5424'></path>
<path d='M31.1482 14.1026C29.2339 14.1026 27.4616 14.7169 26.0135 15.7611C25.9822 15.4265 25.9666 15.0628 25.9666 14.658C25.9666 9.73095 30.1877 4.43436 35.1123 2.27877L33.9984 0C25.4976 4.188 21.6283 11.2707 21.6283 19.4619C21.6283 21.1765 21.8786 23.996 22.9776 26.4999C24.3132 29.7301 27.4685 32 31.1482 32C36.037 32 40 27.9935 40 23.0513C40 18.1091 36.037 14.1026 31.1482 14.1026Z' fill='%23EB5424'></path>
</symbol>
</defs>
</svg>
